<svg width="240" height="240" viewBox="0 0 240 240" fill="none" xmlns="http://www.w3.org/2000/svg">
<rect width="240" height="240" rx="46" fill="#F34C4C"/>
<path d="M116.324 36.0414C113.665 36.4632 96.7356 55.0242 84.8521 70.5269C69.1702 90.9862 59.0774 109.547 54.7364 125.841C53.1085 131.957 53 132.959 53 141.08C53 148.673 53.2171 150.466 54.4108 155.159C61.0309 180.311 79.6429 197.712 105.743 203.09C111.495 204.303 123.65 204.303 129.619 203.09C148.611 199.241 164.292 188.326 173.734 172.454C175.362 169.712 178.563 163.068 178.563 162.383C178.563 162.277 177.044 162.172 175.253 162.172C167.874 162.172 161.525 158.797 157.184 152.575L155.448 150.097L152.897 155.106C151.432 157.953 149.207 161.275 147.797 162.752C142.153 168.605 132.712 170.82 124.844 168.078C119.2 166.127 116.27 163.49 110.355 154.737L106.177 148.673L101.456 148.146C95.7046 147.46 91.6349 145.667 87.8908 142.082C83.9839 138.338 81.7591 133.539 81.5421 128.214C81.1622 121.57 83.0614 116.824 87.9451 112.078C93.5341 106.594 97.658 105.54 112.634 105.856C121.751 106.014 123.216 106.172 125.495 107.174L128.099 108.334L132.006 100.847C136.51 92.199 139.223 89.1406 144.541 86.7678C148.611 84.9222 153.82 84.2894 157.944 85.1331C159.517 85.4495 160.874 85.6604 160.982 85.555C161.525 85.0804 146.277 64.8847 139.006 56.4479C135.262 52.0713 121.099 36.6741 120.882 36.6741C120.828 36.6741 120.014 36.4632 119.146 36.2523C118.224 36.0414 116.975 35.9359 116.324 36.0414Z" fill="white"/>
<path d="M151.434 99.4757C150.729 99.7393 149.643 100.425 149.101 100.899C148.504 101.374 144.271 109.125 139.659 118.142C131.954 133.012 131.14 134.383 130.489 133.434C124.032 123.995 122.241 121.728 120.504 120.884C118.877 120.093 117.411 119.988 109.652 120.093C99.6134 120.251 98.5824 120.568 96.9003 124.048C95.598 126.737 96.0863 129.743 98.2026 131.799C99.8847 133.434 99.939 133.434 106.885 133.698C110.737 133.856 113.993 134.067 114.156 134.225C114.264 134.383 117.249 138.707 120.776 143.874C124.9 149.938 127.667 153.524 128.698 153.999C131.357 155.37 135.155 154.895 137.163 152.944C137.489 152.575 141.45 145.14 145.954 136.387C150.457 127.686 154.256 120.515 154.364 120.515C154.473 120.515 158.163 126.315 162.504 133.381C169.286 144.402 170.697 146.353 172.325 147.091C173.953 147.882 175.689 147.987 183.449 147.829C193.922 147.671 195.007 147.249 196.472 143.294C197.177 141.343 197.177 140.816 196.472 138.865C195.115 135.174 193.65 134.541 185.999 134.278L179.379 134.119L169.341 117.773C163.806 108.809 158.705 101.005 157.946 100.478C156.155 99.2648 153.17 98.7902 151.434 99.4757Z" fill="white"/>
</svg>
